<mxfile host="app.diagrams.net" agent="Mozilla/5.0 (Windows NT 10.0; Win64; x64) AppleWebKit/537.36 (KHTML, like Gecko) Chrome/134.0.0.0 Safari/537.36" version="26.1.1">
  <diagram name="Page-1" id="b5b7bab2-c9e2-2cf4-8b2a-24fd1a2a6d21">
    <mxGraphModel dx="1222" dy="1114" grid="1" gridSize="10" guides="1" tooltips="1" connect="1" arrows="1" fold="1" page="1" pageScale="1" pageWidth="827" pageHeight="1169" background="none" math="0" shadow="0">
      <root>
        <mxCell id="0" />
        <mxCell id="1" parent="0" />
        <mxCell id="YNcN27YD7fx48CAJPcOb-88" value="AssetCloneStrategyFactory" style="swimlane;fontStyle=1;align=center;verticalAlign=top;childLayout=stackLayout;horizontal=1;startSize=26;horizontalStack=0;resizeParent=1;resizeParentMax=0;resizeLast=0;collapsible=1;marginBottom=0;whiteSpace=wrap;html=1;" parent="1" vertex="1">
          <mxGeometry x="1590" y="720" width="259" height="70" as="geometry" />
        </mxCell>
        <mxCell id="YNcN27YD7fx48CAJPcOb-89" value="" style="line;strokeWidth=1;fillColor=none;align=left;verticalAlign=middle;spacingTop=-1;spacingLeft=3;spacingRight=3;rotatable=0;labelPosition=right;points=[];portConstraint=eastwest;strokeColor=inherit;" parent="YNcN27YD7fx48CAJPcOb-88" vertex="1">
          <mxGeometry y="26" width="259" height="18" as="geometry" />
        </mxCell>
        <mxCell id="YNcN27YD7fx48CAJPcOb-90" value="+&amp;nbsp;GetCloneStrategy()" style="text;strokeColor=none;fillColor=none;align=left;verticalAlign=top;spacingLeft=4;spacingRight=4;overflow=hidden;rotatable=0;points=[[0,0.5],[1,0.5]];portConstraint=eastwest;whiteSpace=wrap;html=1;" parent="YNcN27YD7fx48CAJPcOb-88" vertex="1">
          <mxGeometry y="44" width="259" height="26" as="geometry" />
        </mxCell>
        <mxCell id="YNcN27YD7fx48CAJPcOb-150" value="" style="shape=folder;fontStyle=1;spacingTop=10;tabWidth=194;tabHeight=22;tabPosition=left;html=1;rounded=0;shadow=0;comic=0;labelBackgroundColor=none;strokeWidth=1;fillColor=none;fontFamily=Verdana;fontSize=10;align=center;" parent="1" vertex="1">
          <mxGeometry x="1470" y="970" width="860" height="500" as="geometry" />
        </mxCell>
        <mxCell id="YNcN27YD7fx48CAJPcOb-134" value="" style="shape=folder;fontStyle=1;spacingTop=10;tabWidth=194;tabHeight=22;tabPosition=left;html=1;rounded=0;shadow=0;comic=0;labelBackgroundColor=none;strokeWidth=1;fillColor=none;fontFamily=Verdana;fontSize=10;align=center;" parent="1" vertex="1">
          <mxGeometry x="1920" y="1180" width="379.99999999999994" height="260" as="geometry" />
        </mxCell>
        <mxCell id="YNcN27YD7fx48CAJPcOb-168" style="edgeStyle=orthogonalEdgeStyle;rounded=0;orthogonalLoop=1;jettySize=auto;html=1;" parent="1" source="YNcN27YD7fx48CAJPcOb-82" edge="1">
          <mxGeometry relative="1" as="geometry">
            <mxPoint x="1510" y="1250" as="targetPoint" />
            <Array as="points">
              <mxPoint x="1397" y="1250" />
            </Array>
          </mxGeometry>
        </mxCell>
        <mxCell id="YNcN27YD7fx48CAJPcOb-82" value="SceneGameObjectStore" style="swimlane;fontStyle=1;align=center;verticalAlign=top;childLayout=stackLayout;horizontal=1;startSize=26;horizontalStack=0;resizeParent=1;resizeParentMax=0;resizeLast=0;collapsible=1;marginBottom=0;whiteSpace=wrap;html=1;" parent="1" vertex="1">
          <mxGeometry x="1300" y="540" width="259" height="130" as="geometry" />
        </mxCell>
        <mxCell id="YNcN27YD7fx48CAJPcOb-83" value="" style="line;strokeWidth=1;fillColor=none;align=left;verticalAlign=middle;spacingTop=-1;spacingLeft=3;spacingRight=3;rotatable=0;labelPosition=right;points=[];portConstraint=eastwest;strokeColor=inherit;" parent="YNcN27YD7fx48CAJPcOb-82" vertex="1">
          <mxGeometry y="26" width="259" height="18" as="geometry" />
        </mxCell>
        <mxCell id="YNcN27YD7fx48CAJPcOb-84" value="- OnSceneChanged()&lt;div&gt;+ CloneGameobject()&lt;/div&gt;&lt;div&gt;+ CloneGameobjectStore()&lt;/div&gt;&lt;div&gt;+ TryGetExistingClone()&lt;/div&gt;&lt;div&gt;+ TryRemoveClone()&lt;/div&gt;&lt;div&gt;&lt;br&gt;&lt;/div&gt;" style="text;strokeColor=none;fillColor=none;align=left;verticalAlign=top;spacingLeft=4;spacingRight=4;overflow=hidden;rotatable=0;points=[[0,0.5],[1,0.5]];portConstraint=eastwest;whiteSpace=wrap;html=1;" parent="YNcN27YD7fx48CAJPcOb-82" vertex="1">
          <mxGeometry y="44" width="259" height="86" as="geometry" />
        </mxCell>
        <mxCell id="YNcN27YD7fx48CAJPcOb-85" value="RTUAssetStore" style="swimlane;fontStyle=1;align=center;verticalAlign=top;childLayout=stackLayout;horizontal=1;startSize=26;horizontalStack=0;resizeParent=1;resizeParentMax=0;resizeLast=0;collapsible=1;marginBottom=0;whiteSpace=wrap;html=1;" parent="1" vertex="1">
          <mxGeometry x="1600" y="540" width="259" height="130" as="geometry" />
        </mxCell>
        <mxCell id="YNcN27YD7fx48CAJPcOb-86" value="" style="line;strokeWidth=1;fillColor=none;align=left;verticalAlign=middle;spacingTop=-1;spacingLeft=3;spacingRight=3;rotatable=0;labelPosition=right;points=[];portConstraint=eastwest;strokeColor=inherit;" parent="YNcN27YD7fx48CAJPcOb-85" vertex="1">
          <mxGeometry y="26" width="259" height="18" as="geometry" />
        </mxCell>
        <mxCell id="YNcN27YD7fx48CAJPcOb-87" value="+ GenerateDictionary()&lt;div&gt;+&amp;nbsp;GenerateClone()&lt;/div&gt;&lt;div&gt;+&amp;nbsp;TryGetExistingClone()&lt;/div&gt;&lt;div&gt;+&amp;nbsp;UpdateClone()&lt;/div&gt;" style="text;strokeColor=none;fillColor=none;align=left;verticalAlign=top;spacingLeft=4;spacingRight=4;overflow=hidden;rotatable=0;points=[[0,0.5],[1,0.5]];portConstraint=eastwest;whiteSpace=wrap;html=1;" parent="YNcN27YD7fx48CAJPcOb-85" vertex="1">
          <mxGeometry y="44" width="259" height="86" as="geometry" />
        </mxCell>
        <mxCell id="YNcN27YD7fx48CAJPcOb-172" style="edgeStyle=orthogonalEdgeStyle;rounded=0;orthogonalLoop=1;jettySize=auto;html=1;dashed=1;" parent="1" source="YNcN27YD7fx48CAJPcOb-94" target="YNcN27YD7fx48CAJPcOb-128" edge="1">
          <mxGeometry relative="1" as="geometry" />
        </mxCell>
        <mxCell id="YNcN27YD7fx48CAJPcOb-94" value="«interface»&lt;br&gt;&lt;b&gt;ICloneStrategy&lt;/b&gt;" style="html=1;whiteSpace=wrap;" parent="1" vertex="1">
          <mxGeometry x="1665.5" y="860" width="128" height="50" as="geometry" />
        </mxCell>
        <mxCell id="YNcN27YD7fx48CAJPcOb-128" value="DefaultCloneStrategy" style="swimlane;fontStyle=1;align=center;verticalAlign=top;childLayout=stackLayout;horizontal=1;startSize=26;horizontalStack=0;resizeParent=1;resizeParentMax=0;resizeLast=0;collapsible=1;marginBottom=0;whiteSpace=wrap;html=1;" parent="1" vertex="1">
          <mxGeometry x="1680" y="1050" width="259" height="70" as="geometry" />
        </mxCell>
        <mxCell id="YNcN27YD7fx48CAJPcOb-129" value="" style="line;strokeWidth=1;fillColor=none;align=left;verticalAlign=middle;spacingTop=-1;spacingLeft=3;spacingRight=3;rotatable=0;labelPosition=right;points=[];portConstraint=eastwest;strokeColor=inherit;" parent="YNcN27YD7fx48CAJPcOb-128" vertex="1">
          <mxGeometry y="26" width="259" height="18" as="geometry" />
        </mxCell>
        <mxCell id="YNcN27YD7fx48CAJPcOb-130" value="+&amp;nbsp;Clone()" style="text;strokeColor=none;fillColor=none;align=left;verticalAlign=top;spacingLeft=4;spacingRight=4;overflow=hidden;rotatable=0;points=[[0,0.5],[1,0.5]];portConstraint=eastwest;whiteSpace=wrap;html=1;" parent="YNcN27YD7fx48CAJPcOb-128" vertex="1">
          <mxGeometry y="44" width="259" height="26" as="geometry" />
        </mxCell>
        <mxCell id="YNcN27YD7fx48CAJPcOb-151" value="Clone Strategies" style="text;html=1;align=left;verticalAlign=top;spacingTop=-4;fontSize=10;fontFamily=Verdana" parent="1" vertex="1">
          <mxGeometry x="1470" y="970" width="149.6969696969697" height="20" as="geometry" />
        </mxCell>
        <mxCell id="YNcN27YD7fx48CAJPcOb-132" value="" style="group" parent="1" vertex="1" connectable="0">
          <mxGeometry x="1970" y="1265" width="279" height="90" as="geometry" />
        </mxCell>
        <mxCell id="YNcN27YD7fx48CAJPcOb-91" value="MaterialCloneStrategy" style="swimlane;fontStyle=1;align=center;verticalAlign=top;childLayout=stackLayout;horizontal=1;startSize=26;horizontalStack=0;resizeParent=1;resizeParentMax=0;resizeLast=0;collapsible=1;marginBottom=0;whiteSpace=wrap;html=1;" parent="YNcN27YD7fx48CAJPcOb-132" vertex="1">
          <mxGeometry width="259" height="70" as="geometry" />
        </mxCell>
        <mxCell id="YNcN27YD7fx48CAJPcOb-92" value="" style="line;strokeWidth=1;fillColor=none;align=left;verticalAlign=middle;spacingTop=-1;spacingLeft=3;spacingRight=3;rotatable=0;labelPosition=right;points=[];portConstraint=eastwest;strokeColor=inherit;" parent="YNcN27YD7fx48CAJPcOb-91" vertex="1">
          <mxGeometry y="26" width="259" height="18" as="geometry" />
        </mxCell>
        <mxCell id="YNcN27YD7fx48CAJPcOb-93" value="+&amp;nbsp;Clone()" style="text;strokeColor=none;fillColor=none;align=left;verticalAlign=top;spacingLeft=4;spacingRight=4;overflow=hidden;rotatable=0;points=[[0,0.5],[1,0.5]];portConstraint=eastwest;whiteSpace=wrap;html=1;" parent="YNcN27YD7fx48CAJPcOb-91" vertex="1">
          <mxGeometry y="44" width="259" height="26" as="geometry" />
        </mxCell>
        <mxCell id="YNcN27YD7fx48CAJPcOb-98" value="Texture&lt;span style=&quot;color: rgba(0, 0, 0, 0); font-family: monospace; font-size: 0px; font-weight: 400; text-align: start; text-wrap-mode: nowrap;&quot;&gt;%3CmxGraphModel%3E%3Croot%3E%3CmxCell%20id%3D%220%22%2F%3E%3CmxCell%20id%3D%221%22%20parent%3D%220%22%2F%3E%3CmxCell%20id%3D%222%22%20value%3D%22MaterialCloneStrategy%22%20style%3D%22swimlane%3BfontStyle%3D1%3Balign%3Dcenter%3BverticalAlign%3Dtop%3BchildLayout%3DstackLayout%3Bhorizontal%3D1%3BstartSize%3D26%3BhorizontalStack%3D0%3BresizeParent%3D1%3BresizeParentMax%3D0%3BresizeLast%3D0%3Bcollapsible%3D1%3BmarginBottom%3D0%3BwhiteSpace%3Dwrap%3Bhtml%3D1%3B%22%20vertex%3D%221%22%20parent%3D%221%22%3E%3CmxGeometry%20x%3D%222339%22%20y%3D%22960%22%20width%3D%22259%22%20height%3D%2270%22%20as%3D%22geometry%22%2F%3E%3C%2FmxCell%3E%3CmxCell%20id%3D%223%22%20value%3D%22%22%20style%3D%22line%3BstrokeWidth%3D1%3BfillColor%3Dnone%3Balign%3Dleft%3BverticalAlign%3Dmiddle%3BspacingTop%3D-1%3BspacingLeft%3D3%3BspacingRight%3D3%3Brotatable%3D0%3BlabelPosition%3Dright%3Bpoints%3D%5B%5D%3BportConstraint%3Deastwest%3BstrokeColor%3Dinherit%3B%22%20vertex%3D%221%22%20parent%3D%222%22%3E%3CmxGeometry%20y%3D%2226%22%20width%3D%22259%22%20height%3D%2218%22%20as%3D%22geometry%22%2F%3E%3C%2FmxCell%3E%3CmxCell%20id%3D%224%22%20value%3D%22%2B%26amp%3Bnbsp%3BClone()%22%20style%3D%22text%3BstrokeColor%3Dnone%3BfillColor%3Dnone%3Balign%3Dleft%3BverticalAlign%3Dtop%3BspacingLeft%3D4%3BspacingRight%3D4%3Boverflow%3Dhidden%3Brotatable%3D0%3Bpoints%3D%5B%5B0%2C0.5%5D%2C%5B1%2C0.5%5D%5D%3BportConstraint%3Deastwest%3BwhiteSpace%3Dwrap%3Bhtml%3D1%3B%22%20vertex%3D%221%22%20parent%3D%222%22%3E%3CmxGeometry%20y%3D%2244%22%20width%3D%22259%22%20height%3D%2226%22%20as%3D%22geometry%22%2F%3E%3C%2FmxCell%3E%3C%2Froot%3E%3C%2FmxGraphModel%3E&lt;/span&gt;&lt;span style=&quot;color: rgba(0, 0, 0, 0); font-family: monospace; font-size: 0px; font-weight: 400; text-align: start; text-wrap-mode: nowrap;&quot;&gt;%3CmxGraphModel%3E%3Croot%3E%3CmxCell%20id%3D%220%22%2F%3E%3CmxCell%20id%3D%221%22%20parent%3D%220%22%2F%3E%3CmxCell%20id%3D%222%22%20value%3D%22MaterialCloneStrategy%22%20style%3D%22swimlane%3BfontStyle%3D1%3Balign%3Dcenter%3BverticalAlign%3Dtop%3BchildLayout%3DstackLayout%3Bhorizontal%3D1%3BstartSize%3D26%3BhorizontalStack%3D0%3BresizeParent%3D1%3BresizeParentMax%3D0%3BresizeLast%3D0%3Bcollapsible%3D1%3BmarginBottom%3D0%3BwhiteSpace%3Dwrap%3Bhtml%3D1%3B%22%20vertex%3D%221%22%20parent%3D%221%22%3E%3CmxGeometry%20x%3D%222339%22%20y%3D%22960%22%20width%3D%22259%22%20height%3D%2270%22%20as%3D%22geometry%22%2F%3E%3C%2FmxCell%3E%3CmxCell%20id%3D%223%22%20value%3D%22%22%20style%3D%22line%3BstrokeWidth%3D1%3BfillColor%3Dnone%3Balign%3Dleft%3BverticalAlign%3Dmiddle%3BspacingTop%3D-1%3BspacingLeft%3D3%3BspacingRight%3D3%3Brotatable%3D0%3BlabelPosition%3Dright%3Bpoints%3D%5B%5D%3BportConstraint%3Deastwest%3BstrokeColor%3Dinherit%3B%22%20vertex%3D%221%22%20parent%3D%222%22%3E%3CmxGeometry%20y%3D%2226%22%20width%3D%22259%22%20height%3D%2218%22%20as%3D%22geometry%22%2F%3E%3C%2FmxCell%3E%3CmxCell%20id%3D%224%22%20value%3D%22%2B%26amp%3Bnbsp%3BClone()%22%20style%3D%22text%3BstrokeColor%3Dnone%3BfillColor%3Dnone%3Balign%3Dleft%3BverticalAlign%3Dtop%3BspacingLeft%3D4%3BspacingRight%3D4%3Boverflow%3Dhidden%3Brotatable%3D0%3Bpoints%3D%5B%5B0%2C0.5%5D%2C%5B1%2C0.5%5D%5D%3BportConstraint%3Deastwest%3BwhiteSpace%3Dwrap%3Bhtml%3D1%3B%22%20vertex%3D%221%22%20parent%3D%222%22%3E%3CmxGeometry%20y%3D%2244%22%20width%3D%22259%22%20height%3D%2226%22%20as%3D%22geometry%22%2F%3E%3C%2FmxCell%3E%3C%2Froot%3E%3C%2FmxGraphModel%3E&lt;/span&gt;CloneStrategy" style="swimlane;fontStyle=1;align=center;verticalAlign=top;childLayout=stackLayout;horizontal=1;startSize=26;horizontalStack=0;resizeParent=1;resizeParentMax=0;resizeLast=0;collapsible=1;marginBottom=0;whiteSpace=wrap;html=1;" parent="YNcN27YD7fx48CAJPcOb-132" vertex="1">
          <mxGeometry x="20" y="20" width="259" height="70" as="geometry" />
        </mxCell>
        <mxCell id="YNcN27YD7fx48CAJPcOb-99" value="" style="line;strokeWidth=1;fillColor=none;align=left;verticalAlign=middle;spacingTop=-1;spacingLeft=3;spacingRight=3;rotatable=0;labelPosition=right;points=[];portConstraint=eastwest;strokeColor=inherit;" parent="YNcN27YD7fx48CAJPcOb-98" vertex="1">
          <mxGeometry y="26" width="259" height="18" as="geometry" />
        </mxCell>
        <mxCell id="YNcN27YD7fx48CAJPcOb-100" value="+&amp;nbsp;Clone()" style="text;strokeColor=none;fillColor=none;align=left;verticalAlign=top;spacingLeft=4;spacingRight=4;overflow=hidden;rotatable=0;points=[[0,0.5],[1,0.5]];portConstraint=eastwest;whiteSpace=wrap;html=1;" parent="YNcN27YD7fx48CAJPcOb-98" vertex="1">
          <mxGeometry y="44" width="259" height="26" as="geometry" />
        </mxCell>
        <mxCell id="YNcN27YD7fx48CAJPcOb-135" value="Asset Clone Strategies" style="text;html=1;align=left;verticalAlign=top;spacingTop=-4;fontSize=10;fontFamily=Verdana" parent="1" vertex="1">
          <mxGeometry x="1920" y="1180" width="149.6969696969697" height="20" as="geometry" />
        </mxCell>
        <mxCell id="YNcN27YD7fx48CAJPcOb-153" value="" style="group" parent="1" vertex="1" connectable="0">
          <mxGeometry x="1490" y="1180" width="380" height="260" as="geometry" />
        </mxCell>
        <mxCell id="YNcN27YD7fx48CAJPcOb-148" value="" style="shape=folder;fontStyle=1;spacingTop=10;tabWidth=194;tabHeight=22;tabPosition=left;html=1;rounded=0;shadow=0;comic=0;labelBackgroundColor=none;strokeWidth=1;fillColor=none;fontFamily=Verdana;fontSize=10;align=center;" parent="YNcN27YD7fx48CAJPcOb-153" vertex="1">
          <mxGeometry width="379.99999999999994" height="260" as="geometry" />
        </mxCell>
        <mxCell id="YNcN27YD7fx48CAJPcOb-149" value="Component Clone Strategies" style="text;html=1;align=left;verticalAlign=top;spacingTop=-4;fontSize=10;fontFamily=Verdana" parent="YNcN27YD7fx48CAJPcOb-153" vertex="1">
          <mxGeometry width="149.6969696969697" height="20" as="geometry" />
        </mxCell>
        <mxCell id="YNcN27YD7fx48CAJPcOb-131" value="" style="group" parent="YNcN27YD7fx48CAJPcOb-153" vertex="1" connectable="0">
          <mxGeometry x="20" y="65" width="319" height="130" as="geometry" />
        </mxCell>
        <mxCell id="YNcN27YD7fx48CAJPcOb-104" value="DefaultComponentCloneStrategy" style="swimlane;fontStyle=1;align=center;verticalAlign=top;childLayout=stackLayout;horizontal=1;startSize=26;horizontalStack=0;resizeParent=1;resizeParentMax=0;resizeLast=0;collapsible=1;marginBottom=0;whiteSpace=wrap;html=1;" parent="YNcN27YD7fx48CAJPcOb-131" vertex="1">
          <mxGeometry width="259" height="70" as="geometry" />
        </mxCell>
        <mxCell id="YNcN27YD7fx48CAJPcOb-105" value="" style="line;strokeWidth=1;fillColor=none;align=left;verticalAlign=middle;spacingTop=-1;spacingLeft=3;spacingRight=3;rotatable=0;labelPosition=right;points=[];portConstraint=eastwest;strokeColor=inherit;" parent="YNcN27YD7fx48CAJPcOb-104" vertex="1">
          <mxGeometry y="26" width="259" height="18" as="geometry" />
        </mxCell>
        <mxCell id="YNcN27YD7fx48CAJPcOb-106" value="+&amp;nbsp;Clone()" style="text;strokeColor=none;fillColor=none;align=left;verticalAlign=top;spacingLeft=4;spacingRight=4;overflow=hidden;rotatable=0;points=[[0,0.5],[1,0.5]];portConstraint=eastwest;whiteSpace=wrap;html=1;" parent="YNcN27YD7fx48CAJPcOb-104" vertex="1">
          <mxGeometry y="44" width="259" height="26" as="geometry" />
        </mxCell>
        <mxCell id="YNcN27YD7fx48CAJPcOb-110" value="MeshFilterCloneStrategy" style="swimlane;fontStyle=1;align=center;verticalAlign=top;childLayout=stackLayout;horizontal=1;startSize=26;horizontalStack=0;resizeParent=1;resizeParentMax=0;resizeLast=0;collapsible=1;marginBottom=0;whiteSpace=wrap;html=1;" parent="YNcN27YD7fx48CAJPcOb-131" vertex="1">
          <mxGeometry x="20" y="20" width="259" height="70" as="geometry" />
        </mxCell>
        <mxCell id="YNcN27YD7fx48CAJPcOb-111" value="" style="line;strokeWidth=1;fillColor=none;align=left;verticalAlign=middle;spacingTop=-1;spacingLeft=3;spacingRight=3;rotatable=0;labelPosition=right;points=[];portConstraint=eastwest;strokeColor=inherit;" parent="YNcN27YD7fx48CAJPcOb-110" vertex="1">
          <mxGeometry y="26" width="259" height="18" as="geometry" />
        </mxCell>
        <mxCell id="YNcN27YD7fx48CAJPcOb-112" value="+&amp;nbsp;Clone()" style="text;strokeColor=none;fillColor=none;align=left;verticalAlign=top;spacingLeft=4;spacingRight=4;overflow=hidden;rotatable=0;points=[[0,0.5],[1,0.5]];portConstraint=eastwest;whiteSpace=wrap;html=1;" parent="YNcN27YD7fx48CAJPcOb-110" vertex="1">
          <mxGeometry y="44" width="259" height="26" as="geometry" />
        </mxCell>
        <mxCell id="YNcN27YD7fx48CAJPcOb-116" value="RendererCloneStrategy" style="swimlane;fontStyle=1;align=center;verticalAlign=top;childLayout=stackLayout;horizontal=1;startSize=26;horizontalStack=0;resizeParent=1;resizeParentMax=0;resizeLast=0;collapsible=1;marginBottom=0;whiteSpace=wrap;html=1;" parent="YNcN27YD7fx48CAJPcOb-131" vertex="1">
          <mxGeometry x="40" y="40" width="259" height="70" as="geometry" />
        </mxCell>
        <mxCell id="YNcN27YD7fx48CAJPcOb-117" value="" style="line;strokeWidth=1;fillColor=none;align=left;verticalAlign=middle;spacingTop=-1;spacingLeft=3;spacingRight=3;rotatable=0;labelPosition=right;points=[];portConstraint=eastwest;strokeColor=inherit;" parent="YNcN27YD7fx48CAJPcOb-116" vertex="1">
          <mxGeometry y="26" width="259" height="18" as="geometry" />
        </mxCell>
        <mxCell id="YNcN27YD7fx48CAJPcOb-118" value="+&amp;nbsp;Clone()" style="text;strokeColor=none;fillColor=none;align=left;verticalAlign=top;spacingLeft=4;spacingRight=4;overflow=hidden;rotatable=0;points=[[0,0.5],[1,0.5]];portConstraint=eastwest;whiteSpace=wrap;html=1;" parent="YNcN27YD7fx48CAJPcOb-116" vertex="1">
          <mxGeometry y="44" width="259" height="26" as="geometry" />
        </mxCell>
        <mxCell id="YNcN27YD7fx48CAJPcOb-122" value="GameobjectCloneStrategy" style="swimlane;fontStyle=1;align=center;verticalAlign=top;childLayout=stackLayout;horizontal=1;startSize=26;horizontalStack=0;resizeParent=1;resizeParentMax=0;resizeLast=0;collapsible=1;marginBottom=0;whiteSpace=wrap;html=1;" parent="YNcN27YD7fx48CAJPcOb-131" vertex="1">
          <mxGeometry x="60" y="60" width="259" height="70" as="geometry" />
        </mxCell>
        <mxCell id="YNcN27YD7fx48CAJPcOb-123" value="" style="line;strokeWidth=1;fillColor=none;align=left;verticalAlign=middle;spacingTop=-1;spacingLeft=3;spacingRight=3;rotatable=0;labelPosition=right;points=[];portConstraint=eastwest;strokeColor=inherit;" parent="YNcN27YD7fx48CAJPcOb-122" vertex="1">
          <mxGeometry y="26" width="259" height="18" as="geometry" />
        </mxCell>
        <mxCell id="YNcN27YD7fx48CAJPcOb-124" value="+&amp;nbsp;Clone()" style="text;strokeColor=none;fillColor=none;align=left;verticalAlign=top;spacingLeft=4;spacingRight=4;overflow=hidden;rotatable=0;points=[[0,0.5],[1,0.5]];portConstraint=eastwest;whiteSpace=wrap;html=1;" parent="YNcN27YD7fx48CAJPcOb-122" vertex="1">
          <mxGeometry y="44" width="259" height="26" as="geometry" />
        </mxCell>
        <mxCell id="YNcN27YD7fx48CAJPcOb-159" value="" style="endArrow=diamondThin;endFill=0;endSize=24;html=1;rounded=0;entryX=0.547;entryY=1.097;entryDx=0;entryDy=0;exitX=0.5;exitY=0;exitDx=0;exitDy=0;entryPerimeter=0;" parent="1" source="YNcN27YD7fx48CAJPcOb-94" target="YNcN27YD7fx48CAJPcOb-90" edge="1">
          <mxGeometry width="160" relative="1" as="geometry">
            <mxPoint x="2360" y="739" as="sourcePoint" />
            <mxPoint x="2362" y="820" as="targetPoint" />
          </mxGeometry>
        </mxCell>
        <mxCell id="YNcN27YD7fx48CAJPcOb-160" style="edgeStyle=orthogonalEdgeStyle;rounded=0;orthogonalLoop=1;jettySize=auto;html=1;entryX=0.539;entryY=-0.003;entryDx=0;entryDy=0;entryPerimeter=0;" parent="1" source="YNcN27YD7fx48CAJPcOb-85" target="YNcN27YD7fx48CAJPcOb-88" edge="1">
          <mxGeometry relative="1" as="geometry" />
        </mxCell>
        <mxCell id="YNcN27YD7fx48CAJPcOb-162" value="" style="endArrow=block;dashed=1;endFill=0;endSize=12;html=1;rounded=0;entryX=0.575;entryY=0.038;entryDx=0;entryDy=0;entryPerimeter=0;exitX=1.004;exitY=1.007;exitDx=0;exitDy=0;exitPerimeter=0;" parent="1" source="YNcN27YD7fx48CAJPcOb-130" target="YNcN27YD7fx48CAJPcOb-91" edge="1">
          <mxGeometry width="160" relative="1" as="geometry">
            <mxPoint x="1822.8490000000002" y="1192.522" as="sourcePoint" />
            <mxPoint x="1690" y="1140" as="targetPoint" />
          </mxGeometry>
        </mxCell>
        <mxCell id="YNcN27YD7fx48CAJPcOb-163" value="" style="endArrow=block;dashed=1;endFill=0;endSize=12;html=1;rounded=0;entryX=0;entryY=0;entryDx=0;entryDy=0;exitX=-0.01;exitY=1.127;exitDx=0;exitDy=0;exitPerimeter=0;" parent="1" source="YNcN27YD7fx48CAJPcOb-130" target="YNcN27YD7fx48CAJPcOb-104" edge="1">
          <mxGeometry width="160" relative="1" as="geometry">
            <mxPoint x="1939" y="1110" as="sourcePoint" />
            <mxPoint x="1940" y="1257" as="targetPoint" />
          </mxGeometry>
        </mxCell>
        <mxCell id="p9s-YsiF2RjJS9KGX6R1-1" value="" style="shape=folder;fontStyle=1;spacingTop=10;tabWidth=194;tabHeight=22;tabPosition=left;html=1;rounded=0;shadow=0;comic=0;labelBackgroundColor=none;strokeWidth=1;fillColor=none;fontFamily=Verdana;fontSize=10;align=center;" vertex="1" parent="1">
          <mxGeometry x="1230" y="500" width="1120" height="990" as="geometry" />
        </mxCell>
        <mxCell id="p9s-YsiF2RjJS9KGX6R1-2" value="Stores" style="text;html=1;align=left;verticalAlign=top;spacingTop=-4;fontSize=10;fontFamily=Verdana" vertex="1" parent="1">
          <mxGeometry x="1230" y="500" width="149.6969696969697" height="20" as="geometry" />
        </mxCell>
      </root>
    </mxGraphModel>
  </diagram>
</mxfile>
